<?xml version="1.0" encoding="utf-8"?>
<!-- Generator: Adobe Illustrator 16.0.0, SVG Export Plug-In . SVG Version: 6.00 Build 0)  -->
<!DOCTYPE svg PUBLIC "-//W3C//DTD SVG 1.1//EN" "http://www.w3.org/Graphics/SVG/1.1/DTD/svg11.dtd">
<svg version="1.1" id="Calque_1" xmlns="http://www.w3.org/2000/svg" xmlns:xlink="http://www.w3.org/1999/xlink" x="0px" y="0px"
	 width="208px" height="70px" viewBox="0 0 208 70" enable-background="new 0 0 208 70" xml:space="preserve">
<g>
	<g>
		<path fill="#EE7A00" d="M77.141,23.859c0,11.879-9.631,21.51-21.51,21.51c-11.881,0-21.51-9.631-21.51-21.51
			c0-11.88,9.629-21.51,21.51-21.51C67.51,2.35,77.141,11.979,77.141,23.859"/>
		<path fill="#FFFFFF" d="M59.496,28.144c1.401-3.459,1.496-5.329,0.279-8.601l4.488-1.777c0.99,2.169,1.683,3.554,1.59,5.891
			c-0.098,2.436-0.412,3.87-1.59,6.264L59.496,28.144z"/>
		<path fill="#FFFFFF" d="M66.859,33.823c0.785,0.289,1.116,0.68,1.078,1.529c-0.067,1.607-0.018,3.222-0.018,5.019
			c-0.486-0.146-18.242-8.395-29.46-13.35c-0.869-0.343-1.723-0.905-1.721-1.807c0.005-1.606-0.062-2.333,0.03-3.731
			c0.026-0.409,0.583-1.05,0.942-1.193C48.949,15.579,67.596,7.308,67.915,7.291c0,1.859,0.044,3.644-0.038,5.423
			c-0.018,0.331-0.501,0.773-0.872,0.936c-1.705,0.75-18.817,7.897-23.817,9.898C48.183,25.547,65.125,33.186,66.859,33.823"/>
	</g>
	<g>
		<g>
			<path fill="#6A6868" d="M93.953,60.339c0.863-0.473,1.741-1.337,1.741-2.903V57.4c0-0.83-0.288-1.551-0.861-2.144
				c-0.781-0.764-1.962-1.168-3.414-1.168h-4.673c-0.468,0-0.864,0.405-0.864,0.886v11.223c0,0.479,0.396,0.885,0.864,0.885h4.908
				c2.926,0,4.743-1.387,4.743-3.617v-0.037C96.397,61.971,95.575,60.932,93.953,60.339z M87.61,55.695h3.684
				c1.649,0,2.636,0.711,2.636,1.902v0.036c0,1.315-1.027,2.103-2.745,2.103H87.61V55.695z M94.631,63.372
				c0,1.315-1.1,2.103-2.941,2.103h-4.08v-4.148h3.827c2.061,0,3.194,0.714,3.194,2.012V63.372z"/>
			<path fill="#6A6868" d="M108.745,53.997c-0.478,0-0.865,0.389-0.865,0.868v9.089l-7.38-9.442
				c-0.193-0.248-0.431-0.478-0.849-0.478h-0.197c-0.47,0-0.864,0.397-0.864,0.866v11.404c0,0.478,0.379,0.866,0.846,0.866
				c0.477,0,0.864-0.39,0.864-0.866v-9.344l7.548,9.684c0.209,0.241,0.473,0.49,0.862,0.49h0.072c0.461,0,0.811-0.357,0.811-0.83
				V54.865C109.592,54.386,109.211,53.997,108.745,53.997z"/>
			<path fill="#6A6868" d="M117.732,54.089h-4.024c-0.468,0-0.864,0.405-0.864,0.886v11.313c0,0.479,0.396,0.884,0.864,0.884
				c0.487,0,0.884-0.396,0.884-0.884v-3.679h2.905c2.549,0,5.122-1.332,5.122-4.307v-0.035
				C122.619,55.729,120.7,54.089,117.732,54.089z M120.854,58.357c0,1.597-1.297,2.627-3.303,2.627h-2.96V55.73h3.031
				c2.053,0,3.231,0.945,3.231,2.592V58.357L120.854,58.357z"/>
			<path fill="#6A6868" d="M138.486,58.268c0-2.537-1.92-4.179-4.889-4.179h-4.023c-0.469,0-0.865,0.405-0.865,0.886v11.313
				c0,0.479,0.396,0.884,0.865,0.884c0.486,0,0.883-0.396,0.883-0.884v-3.679h2.906c2.55,0,5.123-1.332,5.123-4.307V58.268z
				 M136.721,58.357c0,1.597-1.298,2.627-3.304,2.627h-2.961V55.73h3.032c2.053,0,3.23,0.945,3.23,2.592v0.035H136.721z"/>
			<path fill="#6A6868" d="M145.787,54.678c-0.195-0.479-0.553-0.734-1.033-0.734h-0.07c-0.483,0-0.828,0.238-1.05,0.729
				l-5.122,11.236c-0.072,0.144-0.105,0.29-0.105,0.448c0,0.449,0.361,0.813,0.81,0.813c0.382,0,0.679-0.21,0.833-0.584l1.274-2.854
				h6.72l1.273,2.816c0.172,0.396,0.482,0.622,0.852,0.622c0.467,0,0.848-0.381,0.848-0.849c0-0.122-0.035-0.266-0.104-0.43
				L145.787,54.678z M142.025,62.107l2.656-5.926l2.656,5.926H142.025z"/>
			<path fill="#6A6868" d="M158.368,54.089h-4.728c-0.469,0-0.865,0.405-0.865,0.886v11.313c0,0.479,0.396,0.884,0.865,0.884
				c0.487,0,0.883-0.396,0.883-0.884v-4.13h3.388l3.505,4.568c0.22,0.295,0.486,0.444,0.796,0.444c0.463,0,0.884-0.413,0.884-0.866
				c0-0.223-0.087-0.416-0.27-0.625l-2.982-3.853c2.069-0.483,3.252-1.851,3.252-3.777v-0.036c0-1.021-0.363-1.949-1.022-2.611
				C161.227,54.555,159.913,54.089,158.368,54.089z M161.329,58.104c0,1.486-1.211,2.446-3.087,2.446h-3.719V55.73h3.736
				c1.922,0,3.068,0.875,3.068,2.338L161.329,58.104L161.329,58.104z"/>
			<path fill="#6A6868" d="M166.814,53.997c-0.469,0-0.865,0.405-0.865,0.887v11.404c0,0.479,0.396,0.884,0.865,0.884
				c0.485,0,0.881-0.396,0.881-0.884V54.884C167.695,54.395,167.3,53.997,166.814,53.997z"/>
			<path fill="#6A6868" d="M178.504,60.339c0.862-0.473,1.74-1.337,1.74-2.903V57.4c0-0.83-0.288-1.551-0.86-2.144
				c-0.78-0.764-1.962-1.168-3.413-1.168h-4.674c-0.469,0-0.863,0.405-0.863,0.886v11.223c0,0.479,0.396,0.885,0.863,0.885h4.906
				c2.928,0,4.745-1.387,4.745-3.617v-0.037C180.949,61.971,180.126,60.932,178.504,60.339z M172.162,55.695h3.682
				c1.651,0,2.637,0.711,2.637,1.902v0.036c0,1.315-1.025,2.103-2.744,2.103h-3.573L172.162,55.695L172.162,55.695z M179.184,63.372
				c0,1.315-1.102,2.103-2.941,2.103h-4.08v-4.148h3.826c2.061,0,3.195,0.714,3.195,2.012V63.372z"/>
			<path fill="#6A6868" d="M189.336,54.678c-0.195-0.479-0.553-0.734-1.033-0.734h-0.072c-0.482,0-0.826,0.238-1.047,0.729
				l-5.123,11.236c-0.072,0.144-0.105,0.291-0.105,0.448c0,0.449,0.361,0.813,0.811,0.813c0.383,0,0.678-0.21,0.832-0.584
				l1.273-2.854h6.721l1.273,2.816c0.172,0.396,0.482,0.622,0.851,0.622c0.468,0,0.849-0.381,0.849-0.849
				c0-0.122-0.035-0.266-0.104-0.43L189.336,54.678z M185.575,62.107l2.655-5.926l2.658,5.926H185.575z"/>
			<path fill="#6A6868" d="M200.833,59.739c-2.79-0.601-3.301-1.246-3.301-2.304v-0.037c0-1.108,1.038-1.885,2.526-1.885
				c1.178,0,2.155,0.332,3.172,1.073c0.151,0.108,0.309,0.157,0.51,0.157c0.467,0,0.847-0.381,0.847-0.848
				c0-0.389-0.26-0.625-0.374-0.711c-1.229-0.887-2.498-1.279-4.117-1.279c-2.498,0-4.311,1.521-4.311,3.617v0.037
				c0,2.375,1.744,3.241,4.367,3.814c2.668,0.562,3.156,1.199,3.156,2.249v0.035c0,1.174-1.092,1.993-2.654,1.993
				c-1.516,0-2.678-0.438-3.873-1.454c-0.129-0.13-0.34-0.212-0.549-0.212c-0.475,0-0.846,0.382-0.846,0.867
				c0,0.278,0.127,0.529,0.338,0.674c1.463,1.166,3.059,1.732,4.875,1.732c2.635,0,4.474-1.539,4.474-3.744V63.48
				C205.074,61.509,203.807,60.391,200.833,59.739z"/>
		</g>
		<g>
			<path fill="#6A6868" d="M26.558,41.756H6.793V8.246c0-0.867-0.734-1.602-1.602-1.602c-0.868,0-1.602,0.734-1.602,1.602v34.906
				c0,0.869,0.733,1.603,1.602,1.603h21.366c0.812,0,1.498-0.688,1.498-1.5S27.37,41.756,26.558,41.756z"/>
			<path fill="#6A6868" d="M28.255,8.146c-1.062,0-1.96,0.897-1.96,1.96v1.075c0,0.972,0.506,1.69,1.397,1.997
				c0.081,1.562-0.572,2.555-2.284,3.507L25.4,16.69c-0.333,0.199-0.54,0.544-0.54,0.896c0,0.674,0.534,1.038,1.037,1.038
				c0.596,0,1.956-0.819,2.855-1.718c1.024-1.025,1.462-2.676,1.462-5.521v-1.281C30.215,9.043,29.318,8.146,28.255,8.146z"/>
			<path fill="#6A6868" d="M96.86,20.6c0.771,0,1.447-0.652,1.447-1.396c0-0.758-0.691-1.448-1.447-1.448h-7.93v-6.673
				c0-0.868-0.681-1.55-1.55-1.55c-0.854,0-1.499,0.666-1.499,1.55v6.673h-2.549c-0.771,0-1.447,0.652-1.447,1.396
				c0,0.758,0.689,1.447,1.447,1.447h2.549v17.328c0,4.659,2.839,7.441,7.596,7.441c1.623,0,2.872-0.364,3.789-0.685
				c0.639-0.257,0.989-0.729,0.989-1.326c0-0.743-0.652-1.396-1.396-1.396c-0.153,0-0.324,0.055-0.562,0.129
				c-0.483,0.152-1.213,0.383-2.409,0.383c-3.29,0-4.958-1.615-4.958-4.803V20.6H96.86z"/>
			<path fill="#6A6868" d="M115.1,17.471c-7.104,0-12.669,6.104-12.669,13.898v0.102c0,7.923,5.623,13.898,13.078,13.898
				c4.244,0,7.352-1.295,10.387-4.331c0.404-0.403,0.489-0.8,0.489-1.062c0-0.799-0.673-1.449-1.5-1.449
				c-0.384,0-0.714,0.146-1.007,0.437c-2.454,2.396-5.081,3.511-8.266,3.511c-5.368,0-9.428-3.998-9.957-9.762h20.203
				c0.771,0,1.498-0.702,1.498-1.446C127.357,23.273,122.202,17.471,115.1,17.471z M105.659,29.92
				c0.563-5.583,4.452-9.605,9.338-9.605c6.096,0,8.688,5.109,9.085,9.605H105.659z"/>
			<path fill="#6A6868" d="M136.003,6.608c-0.854,0-1.499,0.667-1.499,1.551v35.095c0,0.898,0.652,1.551,1.551,1.551
				c0.883,0,1.498-0.638,1.498-1.551V8.159C137.553,7.289,136.873,6.608,136.003,6.608z"/>
			<path fill="#6A6868" d="M148.927,7.582c-1.013,0-1.806,0.793-1.806,1.806v0.871c0,1.013,0.793,1.807,1.806,1.807
				c1.042,0,1.858-0.794,1.858-1.807V9.388C150.786,8.375,149.969,7.582,148.927,7.582z"/>
			<path fill="#6A6868" d="M148.927,17.804c-0.854,0-1.499,0.667-1.499,1.551v23.899c0,0.898,0.652,1.551,1.551,1.551
				c0.883,0,1.5-0.638,1.5-1.551v-23.9C150.479,18.456,149.827,17.804,148.927,17.804z"/>
			<path fill="#6A6868" d="M170.925,17.471c-7.104,0-12.669,6.104-12.669,13.898v0.102c0,7.923,5.623,13.898,13.078,13.898
				c4.246,0,7.352-1.295,10.387-4.331c0.404-0.403,0.489-0.8,0.489-1.062c0-0.799-0.673-1.449-1.498-1.449
				c-0.386,0-0.717,0.146-1.009,0.437c-2.454,2.396-5.081,3.511-8.266,3.511c-5.367,0-9.427-3.998-9.957-9.762h20.203
				c0.771,0,1.498-0.702,1.498-1.446C183.184,23.273,178.027,17.471,170.925,17.471z M161.484,29.92
				c0.564-5.583,4.453-9.605,9.339-9.605c6.096,0,8.688,5.109,9.086,9.605H161.484z"/>
			<path fill="#6A6868" d="M202.867,17.487c-3.235,0-7.672,2.183-10.234,6.947v-5.193c0-0.898-0.652-1.551-1.55-1.551
				c-0.854,0-1.5,0.667-1.5,1.551v24.013c0,0.898,0.651,1.551,1.551,1.551c0.854,0,1.499-0.666,1.499-1.551v-9.478
				c0-8.735,5.299-12.526,10.25-12.985c0.919-0.057,1.586-0.752,1.586-1.652C204.468,18.213,203.766,17.487,202.867,17.487z"/>
		</g>
	</g>
</g>
</svg>
